<?xml version="1.0" encoding="UTF-8" standalone="no"?>
<svg
   xmlns:dc="http://purl.org/dc/elements/1.1/"
   xmlns:cc="http://creativecommons.org/ns#"
   xmlns:rdf="http://www.w3.org/1999/02/22-rdf-syntax-ns#"
   xmlns:svg="http://www.w3.org/2000/svg"
   xmlns="http://www.w3.org/2000/svg"
   viewBox="0 0 1122.52 793.70135"
   height="793.70135"
   width="1122.52"
   xml:space="preserve"
   id="svg2"
   version="1.1"><metadata
     id="metadata8"><rdf:RDF><cc:Work
         rdf:about=""><dc:format>image/svg+xml</dc:format><dc:type
           rdf:resource="http://purl.org/dc/dcmitype/StillImage" /></cc:Work></rdf:RDF></metadata><defs
     id="defs6"><clipPath
       id="clipPath18"
       clipPathUnits="userSpaceOnUse"><path
         id="path16"
         d="M 0,595.276 H 841.89 V 0 H 0 Z" /></clipPath></defs><g
     transform="matrix(1.3333333,0,0,-1.3333333,0,793.70133)"
     id="g10"><g
       id="g12"><g
         clip-path="url(#clipPath18)"
         id="g14"><g
           transform="translate(257.4775,257.4387)"
           id="g20"><path
             id="path22"
             style="fill:#b84742;fill-opacity:1;fill-rule:nonzero;stroke:none"
             d="m 0,0 c -22.166,0 -40.199,18.033 -40.199,40.199 0,22.166 18.033,40.199 40.199,40.199 11.601,0 22.636,-5.013 30.276,-13.753 l 1.481,-1.695 -1.699,-1.476 -9.662,-8.935 -1.515,1.788 c -4.402,5.195 -11.123,8.009 -18.427,7.7 -8.132,-0.336 -15.723,-4.366 -20.306,-10.781 -7.151,-10.008 -4.826,-23.968 5.182,-31.118 7.803,-5.576 18.691,-3.764 24.268,4.041 2.091,2.927 2.918,6.493 2.326,10.042 -0.591,3.549 -2.528,6.655 -5.455,8.747 -2.244,1.603 -4.983,2.236 -7.699,1.783 -2.721,-0.452 -5.102,-1.938 -6.706,-4.182 -1.213,-1.699 -1.692,-3.767 -1.35,-5.825 0.344,-2.058 1.467,-3.86 3.165,-5.073 1.257,-0.898 2.952,-1.264 4.656,-0.998 1.695,0.262 3.17,1.117 4.048,2.346 0.652,0.913 0.914,2.176 0.719,3.462 -0.195,1.274 -0.811,2.366 -1.694,2.996 -1.303,0.931 -3.12,0.63 -4.052,-0.675 -0.29,-0.406 -0.406,-0.903 -0.323,-1.397 0.082,-0.495 0.352,-0.927 0.759,-1.217 1.008,-0.721 1.242,-2.122 0.522,-3.131 -0.721,-1.009 -2.122,-1.243 -3.131,-0.522 -2.855,2.04 -3.518,6.022 -1.478,8.877 2.37,3.318 6.995,4.087 10.313,1.717 1.862,-1.33 3.145,-3.507 3.521,-5.973 0.37,-2.431 -0.178,-4.89 -1.505,-6.747 -1.575,-2.205 -4.131,-3.725 -7.012,-4.171 -2.852,-0.442 -5.75,0.207 -7.952,1.782 -2.673,1.909 -4.443,4.746 -4.982,7.986 -0.54,3.242 0.214,6.499 2.125,9.172 2.3,3.22 5.716,5.351 9.62,6 C 1.936,51.821 5.858,50.91 9.078,48.609 12.98,45.821 15.564,41.68 16.352,36.948 17.14,32.217 16.038,27.462 13.249,23.56 6.234,13.74 -7.461,11.462 -17.28,18.476 c -12.021,8.589 -14.813,25.357 -6.224,37.379 5.381,7.532 14.268,12.264 23.773,12.657 7.863,0.321 15.19,-2.411 20.443,-7.569 l 4.699,4.347 C 18.718,72.064 9.576,75.91 0,75.91 -19.691,75.91 -35.71,59.89 -35.71,40.199 -35.71,20.508 -19.691,4.488 0,4.488 c 9.998,0 19.604,4.234 26.356,11.615 0.836,0.913 2.256,0.977 3.17,0.141 0.915,-0.837 0.978,-2.257 0.141,-3.171 C 22.068,4.765 11.254,0 0,0" /></g><g
           transform="translate(311.4058,270.26)"
           id="g24"><path
             id="path26"
             style="fill:#000000;fill-opacity:1;fill-rule:nonzero;stroke:none"
             d="m 0,0 c 0,3.162 2.469,5.848 5.738,5.848 2.123,0 3.444,-0.889 4.483,-1.994 L 9.16,2.729 C 8.272,3.66 7.232,4.375 5.717,4.375 3.443,4.375 1.71,2.447 1.71,0 c 0,-2.425 1.776,-4.352 4.115,-4.352 1.429,0 2.49,0.736 3.378,1.689 l 1.105,-1.018 C 9.182,-4.937 7.839,-5.847 5.738,-5.847 2.469,-5.847 0,-3.183 0,0" /></g><g
           transform="translate(327.1699,274.3967)"
           id="g28"><path
             id="path30"
             style="fill:#000000;fill-opacity:1;fill-rule:nonzero;stroke:none"
             d="M 0,0 H -4.006 V 1.473 H 5.695 V 0 H 1.689 V -9.723 H 0 Z" /></g><g
           transform="translate(334.6401,261.7063)"
           id="g32"><path
             id="path34"
             style="fill:#000000;fill-opacity:1;fill-rule:nonzero;stroke:none"
             d="M 0,0 0.563,1.321 C 1.104,1.04 1.602,0.91 2.317,0.91 c 0.996,0 1.624,0.52 2.295,2.101 L -0.477,14.163 H 1.364 L 5.436,4.83 9.03,14.163 h 1.776 L 6.106,2.599 C 5.154,0.282 4.071,-0.562 2.382,-0.562 1.451,-0.562 0.758,-0.367 0,0" /></g><g
           transform="translate(355.0166,266.1457)"
           id="g36"><path
             id="path38"
             style="fill:#000000;fill-opacity:1;fill-rule:nonzero;stroke:none"
             d="M 0,0 V 8.251 H -4.699 V 6.692 C -4.699,3.92 -5.24,1.451 -6.02,0 Z m -9.008,0 h 1.212 c 0.91,1.668 1.494,4.007 1.494,7.774 v 1.95 H 1.667 V 0 H 3.356 L 3.097,-4.266 H 1.711 v 2.794 h -9.052 l -0.303,-2.794 h -1.364 z" /></g><g
           transform="translate(360.6685,275.8694)"
           id="g40"><path
             id="path42"
             style="fill:#000000;fill-opacity:1;fill-rule:nonzero;stroke:none"
             d="M 0,0 H 1.667 V -8.856 L 8.315,0 H 9.94 V -11.195 H 8.272 v 8.856 L 1.603,-11.195 H 0 Z" /></g><g
           transform="translate(381.5864,270.1526)"
           id="g44"><path
             id="path46"
             style="fill:#000000;fill-opacity:1;fill-rule:nonzero;stroke:none"
             d="M 0,0 V 4.244 H -3.508 C -5.175,4.244 -6.15,3.443 -6.15,2.165 -6.15,0.801 -5.024,0 -3.465,0 Z m -4.829,-1.148 c -1.668,0.389 -2.989,1.559 -2.989,3.377 0,2.058 1.56,3.488 4.223,3.488 H 1.667 V -5.479 H 0 v 4.072 h -3.097 c -1.039,-1.365 -2.057,-2.73 -3.097,-4.072 H -8.25 Z" /></g><g
           transform="translate(393.4736,275.8694)"
           id="g48"><path
             id="path50"
             style="fill:#000000;fill-opacity:1;fill-rule:nonzero;stroke:none"
             d="M 0,0 H 9.701 V -11.195 H 8.034 v 9.722 H 1.667 v -9.722 H 0 Z" /></g><g
           transform="translate(416.4922,270.2824)"
           id="g52"><path
             id="path54"
             style="fill:#000000;fill-opacity:1;fill-rule:nonzero;stroke:none"
             d="m 0,0 c 0,2.642 -1.819,4.331 -3.941,4.331 -2.08,0 -4.05,-1.755 -4.05,-4.353 0,-2.599 1.97,-4.331 4.05,-4.331 C -1.776,-4.353 0,-2.751 0,0 m -9.593,5.587 h 1.667 V 3.335 c 0.909,1.343 2.23,2.49 4.288,2.49 2.685,0 5.348,-2.122 5.348,-5.847 0,-3.66 -2.642,-5.825 -5.348,-5.825 -2.079,0 -3.422,1.126 -4.288,2.382 v -5.608 h -1.667 z" /></g><g
           transform="translate(430.5449,270.26)"
           id="g56"><path
             id="path58"
             style="fill:#000000;fill-opacity:1;fill-rule:nonzero;stroke:none"
             d="M 0,0 C 0,2.404 -1.797,4.375 -4.157,4.375 -6.583,4.375 -8.25,2.404 -8.25,0 c 0,-2.403 1.775,-4.352 4.136,-4.352 C -1.688,-4.352 0,-2.403 0,0 m -9.961,0 c 0,3.162 2.469,5.848 5.847,5.848 3.356,0 5.825,-2.642 5.825,-5.848 0,-3.161 -2.49,-5.847 -5.868,-5.847 -3.357,0 -5.804,2.643 -5.804,5.847" /></g><g
           transform="translate(442.4111,266.1457)"
           id="g60"><path
             id="path62"
             style="fill:#000000;fill-opacity:1;fill-rule:nonzero;stroke:none"
             d="M 0,0 V 8.251 H -4.698 V 6.692 C -4.698,3.92 -5.24,1.451 -6.02,0 Z m -9.009,0 h 1.213 c 0.909,1.668 1.494,4.007 1.494,7.774 v 1.95 H 1.667 V 0 H 3.356 L 3.097,-4.266 H 1.711 v 2.794 h -9.052 l -0.303,-2.794 h -1.365 z" /></g><g
           transform="translate(453.4551,266.1028)"
           id="g64"><path
             id="path66"
             style="fill:#000000;fill-opacity:1;fill-rule:nonzero;stroke:none"
             d="m 0,0 c 1.603,0 2.577,0.715 2.577,1.884 0,1.083 -0.974,1.732 -2.794,1.732 H -3.725 V 0 Z m -0.282,4.959 c 1.343,0 2.274,0.628 2.274,1.797 0,0.931 -0.78,1.581 -2.23,1.581 H -3.725 V 4.959 Z m -5.11,4.808 H 0.021 C 2.252,9.767 3.682,8.662 3.682,6.973 3.682,5.5 2.75,4.785 1.819,4.396 3.162,4.028 4.287,3.205 4.287,1.624 c 0,-1.884 -1.601,-3.053 -4.07,-3.053 h -5.609 z" /></g><g
           transform="translate(460.752,275.8694)"
           id="g68"><path
             id="path70"
             style="fill:#000000;fill-opacity:1;fill-rule:nonzero;stroke:none"
             d="M 0,0 H 1.668 V -8.856 L 8.315,0 H 9.939 V -11.195 H 8.272 v 8.856 L 1.603,-11.195 H 0 Z" /></g><g
           transform="translate(477.5771,271.0832)"
           id="g72"><path
             id="path74"
             style="fill:#000000;fill-opacity:1;fill-rule:nonzero;stroke:none"
             d="m 0,0 -4.353,4.786 h 2.014 L 3.356,-1.71 V 4.786 H 5.023 V -1.71 l 5.696,6.496 h 2.013 L 8.38,0 12.972,-6.409 h -1.95 L 7.298,-1.19 5.023,-3.681 V -6.409 H 3.356 v 2.728 L 1.083,-1.19 -2.642,-6.409 h -1.949 z" /></g><g
           transform="translate(500.4004,270.9319)"
           id="g76"><path
             id="path78"
             style="fill:#000000;fill-opacity:1;fill-rule:nonzero;stroke:none"
             d="M 0,0 C -0.194,2.035 -1.363,3.768 -3.572,3.768 -5.5,3.768 -6.973,2.165 -7.211,0 Z m -8.899,-0.672 c 0,3.249 2.273,5.848 5.369,5.848 3.313,0 5.219,-2.642 5.219,-5.934 0,-0.152 0,-0.325 -0.022,-0.585 h -8.878 c 0.238,-2.36 1.971,-3.724 3.941,-3.724 1.538,0 2.621,0.628 3.53,1.581 L 1.3,-4.418 c -1.126,-1.256 -2.49,-2.101 -4.613,-2.101 -3.075,0 -5.586,2.362 -5.586,5.847" /></g><g
           transform="translate(505.0127,275.8694)"
           id="g80"><path
             id="path82"
             style="fill:#000000;fill-opacity:1;fill-rule:nonzero;stroke:none"
             d="M 0,0 H 1.667 V -4.829 H 8.12 V 0 H 9.787 V -11.195 H 8.12 v 4.893 H 1.667 v -4.893 H 0 Z" /></g><g
           transform="translate(518.5234,275.8694)"
           id="g84"><path
             id="path86"
             style="fill:#000000;fill-opacity:1;fill-rule:nonzero;stroke:none"
             d="M 0,0 H 1.668 V -8.856 L 8.315,0 H 9.939 V -11.195 H 8.272 v 8.856 L 1.603,-11.195 H 0 Z" /></g><g
           transform="translate(539.4424,270.1526)"
           id="g88"><path
             id="path90"
             style="fill:#000000;fill-opacity:1;fill-rule:nonzero;stroke:none"
             d="M 0,0 V 4.244 H -3.509 C -5.176,4.244 -6.15,3.443 -6.15,2.165 -6.15,0.801 -5.024,0 -3.465,0 Z m -4.829,-1.148 c -1.667,0.389 -2.988,1.559 -2.988,3.377 0,2.058 1.558,3.488 4.222,3.488 H 1.668 V -5.479 H 0 v 4.072 h -3.097 c -1.04,-1.365 -2.057,-2.73 -3.096,-4.072 H -8.25 Z" /></g><g
           transform="translate(550.6367,270.26)"
           id="g92"><path
             id="path94"
             style="fill:#000000;fill-opacity:1;fill-rule:nonzero;stroke:none"
             d="m 0,0 c 0,3.162 2.468,5.848 5.738,5.848 2.122,0 3.443,-0.889 4.483,-1.994 L 9.159,2.729 C 8.271,3.66 7.232,4.375 5.716,4.375 3.443,4.375 1.711,2.447 1.711,0 c 0,-2.425 1.774,-4.352 4.114,-4.352 1.43,0 2.49,0.736 3.378,1.689 l 1.105,-1.018 C 9.181,-4.937 7.839,-5.847 5.738,-5.847 2.468,-5.847 0,-3.183 0,0" /></g><g
           transform="translate(571.0771,268.7883)"
           id="g96"><path
             id="path98"
             style="fill:#000000;fill-opacity:1;fill-rule:nonzero;stroke:none"
             d="m 0,0 v 1.039 c -0.821,0.238 -1.904,0.477 -3.27,0.477 -2.079,0 -3.269,-0.911 -3.269,-2.296 0,-1.408 1.3,-2.23 2.815,-2.23 C -1.667,-3.01 0,-1.775 0,0 m -8.228,-0.823 c 0,2.403 1.949,3.66 4.786,3.66 1.428,0 2.425,-0.195 3.421,-0.477 v 0.347 c 0,1.991 -1.212,3.031 -3.313,3.031 -1.321,0 -2.36,-0.325 -3.4,-0.801 l -0.497,1.365 c 1.234,0.562 2.424,0.952 4.071,0.952 1.581,0 2.814,-0.433 3.616,-1.234 C 1.235,5.24 1.625,4.157 1.625,2.729 v -6.843 h -1.646 v 1.667 c -0.779,-0.996 -2.057,-1.906 -4.028,-1.906 -2.099,0 -4.179,1.191 -4.179,3.53" /></g><g
           transform="translate(578.0937,280.1135)"
           id="g100"><path
             id="path102"
             style="fill:#000000;fill-opacity:1;fill-rule:nonzero;stroke:none"
             d="m 0,0 1.146,0.238 c 0.261,-0.93 0.845,-1.515 1.907,-1.515 1.06,0 1.646,0.585 1.905,1.515 L 6.106,0 C 5.846,-1.538 4.677,-2.642 3.053,-2.642 1.429,-2.642 0.26,-1.538 0,0 m -1.862,-4.244 h 1.667 v -8.857 l 6.648,8.857 H 8.076 V -15.439 H 6.409 v 8.856 l -6.67,-8.856 h -1.601 z" /></g><g
           transform="translate(592.6016,274.3967)"
           id="g104"><path
             id="path106"
             style="fill:#000000;fill-opacity:1;fill-rule:nonzero;stroke:none"
             d="M 0,0 H -4.006 V 1.473 H 5.695 V 0 H 1.688 V -9.723 H 0 Z" /></g><g
           transform="translate(609.5576,270.26)"
           id="g108"><path
             id="path110"
             style="fill:#000000;fill-opacity:1;fill-rule:nonzero;stroke:none"
             d="M 0,0 C 0,2.404 -1.797,4.375 -4.157,4.375 -6.583,4.375 -8.25,2.404 -8.25,0 c 0,-2.403 1.775,-4.352 4.135,-4.352 C -1.689,-4.352 0,-2.403 0,0 m -9.961,0 c 0,3.162 2.468,5.848 5.846,5.848 3.357,0 5.825,-2.642 5.825,-5.848 0,-3.161 -2.49,-5.847 -5.867,-5.847 -3.358,0 -5.804,2.643 -5.804,5.847" /></g><g
           transform="translate(619.6699,266.1028)"
           id="g112"><path
             id="path114"
             style="fill:#000000;fill-opacity:1;fill-rule:nonzero;stroke:none"
             d="m 0,0 c 1.603,0 2.576,0.715 2.576,1.884 0,1.083 -0.973,1.732 -2.793,1.732 H -3.725 V 0 Z m -0.281,4.959 c 1.342,0 2.272,0.628 2.272,1.797 0,0.931 -0.779,1.581 -2.23,1.581 H -3.725 V 4.959 Z m -5.112,4.808 h 5.414 c 2.23,0 3.66,-1.105 3.66,-2.794 C 3.681,5.5 2.749,4.785 1.818,4.396 3.161,4.028 4.288,3.205 4.288,1.624 4.288,-0.26 2.685,-1.429 0.216,-1.429 h -5.609 z" /></g><g
           transform="translate(330.7065,319.0808)"
           id="g116"><path
             id="path118"
             style="fill:#000000;fill-opacity:1;fill-rule:nonzero;stroke:none"
             d="m 0,0 c -3.299,0 -6.021,-0.055 -8.166,-0.165 -2.145,-0.11 -3.836,-0.482 -5.073,-1.113 -1.238,-0.633 -2.091,-1.609 -2.557,-2.929 -0.468,-1.319 -0.702,-3.217 -0.702,-5.691 0,-2.475 0.234,-4.373 0.702,-5.692 0.466,-1.32 1.319,-2.297 2.557,-2.929 1.237,-0.632 2.928,-1.003 5.073,-1.113 2.145,-0.111 4.867,-0.165 8.166,-0.165 h 16.498 c 0.77,0 1.237,-0.082 1.402,-0.247 0.165,-0.165 0.248,-0.633 0.248,-1.403 v -1.65 c 0,-2.42 -0.908,-4.124 -2.722,-5.114 -1.815,-0.99 -4.758,-1.485 -8.827,-1.485 H 0 c -4.949,0 -8.813,0.412 -11.589,1.238 -2.778,0.825 -4.826,2.062 -6.146,3.711 -1.32,1.65 -2.132,3.713 -2.433,6.187 -0.303,2.475 -0.454,5.362 -0.454,8.662 0,3.299 0.151,6.186 0.454,8.661 0.301,2.475 1.113,4.537 2.433,6.187 1.32,1.649 3.368,2.886 6.146,3.712 2.776,0.824 6.64,1.237 11.589,1.237 h 6.599 c 4.069,0 7.012,-0.495 8.827,-1.485 C 17.24,7.424 18.148,5.719 18.148,3.3 V 1.65 C 18.148,0.879 18.065,0.413 17.9,0.248 17.735,0.083 17.268,0 16.498,0 Z" /></g><g
           transform="translate(394.4702,317.761)"
           id="g120"><path
             id="path122"
             style="fill:#000000;fill-opacity:1;fill-rule:nonzero;stroke:none"
             d="m 0,0 c 0.33,-2.53 0.495,-5.444 0.495,-8.744 v -18.643 c 0,-0.384 -0.028,-0.605 -0.082,-0.659 -0.111,-0.111 -0.359,-0.165 -0.743,-0.165 h -2.475 c -0.385,0 -0.605,0.054 -0.659,0.165 -0.111,0.054 -0.165,0.275 -0.165,0.659 v 19.056 c -0.056,2.31 -0.276,4.096 -0.661,5.362 -0.494,1.32 -1.348,2.309 -2.557,2.969 -1.265,0.604 -2.969,0.99 -5.114,1.155 -1.979,0.11 -4.482,0.165 -7.506,0.165 -3.025,0 -5.527,-0.055 -7.507,-0.165 -2.145,-0.165 -3.85,-0.551 -5.114,-1.155 -1.21,-0.66 -2.062,-1.649 -2.557,-2.969 -0.386,-1.266 -0.606,-3.052 -0.66,-5.362 v -19.056 c 0,-0.384 -0.055,-0.605 -0.165,-0.659 -0.055,-0.111 -0.276,-0.165 -0.66,-0.165 h -2.474 c -0.386,0 -0.606,0.054 -0.661,0.165 -0.11,0.054 -0.165,0.275 -0.165,0.659 v 18.643 c 0,3.3 0.165,6.214 0.495,8.744 0.22,2.145 0.852,3.987 1.897,5.527 l 0.496,0.66 c 1.319,1.65 3.353,2.887 6.104,3.712 2.693,0.825 6.351,1.264 10.971,1.32 4.619,-0.056 8.276,-0.495 10.971,-1.32 2.749,-0.825 4.784,-2.062 6.104,-3.712 l 0.495,-0.66 C -0.853,3.987 -0.22,2.145 0,0" /></g><g
           transform="translate(440.9111,327.8249)"
           id="g124"><path
             id="path126"
             style="fill:#000000;fill-opacity:1;fill-rule:nonzero;stroke:none"
             d="m 0,0 c 1.484,-0.825 2.557,-2.063 3.217,-3.712 0.66,-1.65 1.072,-3.712 1.237,-6.187 0.109,-2.53 0.165,-5.444 0.165,-8.744 v -18.808 c 0,-0.384 -0.028,-0.605 -0.082,-0.659 -0.111,-0.111 -0.358,-0.165 -0.743,-0.165 H 1.319 c -0.384,0 -0.605,0.054 -0.659,0.165 -0.111,0.054 -0.165,0.275 -0.165,0.659 v 18.808 c 0,2.42 -0.165,4.317 -0.495,5.692 -0.276,1.32 -0.688,2.31 -1.237,2.97 -0.606,0.66 -1.293,1.072 -2.063,1.237 -0.825,0.11 -1.761,0.165 -2.804,0.165 -1.21,0 -2.201,-0.083 -2.97,-0.247 -0.771,-0.165 -1.458,-0.551 -2.063,-1.155 -0.55,-0.66 -1.1,-1.623 -1.649,-2.887 -0.495,-1.32 -1.101,-3.135 -1.815,-5.444 -1.265,-4.181 -2.365,-7.589 -3.299,-10.229 -0.936,-2.64 -1.843,-4.703 -2.722,-6.187 -0.936,-1.485 -1.953,-2.503 -3.052,-3.052 -1.101,-0.55 -2.475,-0.825 -4.125,-0.825 -2.639,0 -4.675,0.439 -6.104,1.319 -1.485,0.879 -2.557,2.172 -3.217,3.877 -0.66,1.704 -1.072,3.823 -1.237,6.352 -0.111,2.529 -0.165,5.445 -0.165,8.745 V 0 c 0,0.384 0.054,0.631 0.165,0.742 0.054,0.054 0.274,0.083 0.66,0.083 h 2.474 c 0.384,0 0.632,-0.029 0.743,-0.083 0.054,-0.111 0.082,-0.358 0.082,-0.742 v -18.312 c 0,-2.421 0.165,-4.318 0.495,-5.692 0.275,-1.431 0.714,-2.503 1.32,-3.217 0.549,-0.66 1.237,-1.073 2.062,-1.237 0.77,-0.166 1.677,-0.248 2.722,-0.248 1.264,0 2.281,0.109 3.052,0.33 0.77,0.219 1.456,0.687 2.062,1.402 0.55,0.66 1.073,1.677 1.568,3.052 0.495,1.32 1.099,3.135 1.815,5.444 1.264,4.069 2.336,7.396 3.216,9.981 0.935,2.585 1.869,4.592 2.805,6.022 0.879,1.485 1.869,2.502 2.969,3.052 1.156,0.495 2.558,0.743 4.208,0.743 C -3.465,1.32 -1.431,0.879 0,0" /></g><g
           transform="translate(469.4512,305.0578)"
           id="g128"><path
             id="path130"
             style="fill:#000000;fill-opacity:1;fill-rule:nonzero;stroke:none"
             d="m 0,0 c 3.3,0 6.021,0.054 8.166,0.165 2.145,0.109 3.849,0.398 5.114,0.866 1.265,0.467 2.145,1.168 2.64,2.104 0.495,0.934 0.742,2.227 0.742,3.877 0,1.65 -0.247,2.941 -0.742,3.877 -0.495,0.934 -1.375,1.635 -2.64,2.103 -1.265,0.466 -2.969,0.756 -5.114,0.866 C 6.021,13.968 3.3,14.023 0,14.023 h -11.549 c -0.385,0 -0.618,-0.041 -0.701,-0.124 -0.082,-0.082 -0.123,-0.316 -0.123,-0.701 V 0.825 c 0,-0.386 0.041,-0.618 0.123,-0.701 C -12.167,0.042 -11.934,0 -11.549,0 Z m -15.673,-15.508 c -0.386,0 -0.619,0.041 -0.701,0.123 -0.083,0.083 -0.124,0.317 -0.124,0.701 v 36.956 c 0,0.77 0.083,1.237 0.247,1.402 0.165,0.165 0.632,0.248 1.402,0.248 H 0 c 4.509,0 8.125,-0.165 10.847,-0.495 2.722,-0.33 4.811,-1.045 6.269,-2.145 1.456,-1.1 2.405,-2.695 2.846,-4.784 0.439,-2.091 0.66,-4.895 0.66,-8.414 0,-3.52 -0.221,-6.311 -0.66,-8.373 -0.441,-2.062 -1.39,-3.629 -2.846,-4.702 C 15.658,-6.063 13.569,-6.764 10.847,-7.094 8.125,-7.424 4.509,-7.589 0,-7.589 h -11.466 c -0.386,0 -0.633,-0.041 -0.743,-0.123 -0.11,-0.083 -0.164,-0.318 -0.164,-0.702 v -6.27 c 0,-0.384 -0.042,-0.618 -0.124,-0.701 -0.083,-0.082 -0.317,-0.123 -0.701,-0.123 z" /></g><g
           transform="translate(500.3848,307.3674)"
           id="g132"><path
             id="path134"
             style="fill:#000000;fill-opacity:1;fill-rule:nonzero;stroke:none"
             d="m 0,0 c 0,-0.33 0.041,-0.55 0.123,-0.66 0.083,-0.111 0.316,-0.165 0.701,-0.165 h 29.697 c 0.383,0 0.618,0.042 0.701,0.124 0.082,0.082 0.124,0.316 0.124,0.701 v 1.815 c 0,2.475 -0.236,4.399 -0.701,5.774 -0.469,1.374 -1.293,2.405 -2.475,3.094 -1.184,0.687 -2.792,1.113 -4.826,1.278 -2.035,0.165 -4.592,0.247 -7.671,0.247 -3.081,0 -5.638,-0.082 -7.672,-0.247 C 5.966,11.796 4.357,11.37 3.176,10.683 1.992,9.994 1.167,8.963 0.7,7.589 0.232,6.214 0,4.29 0,1.815 Z m -3.3,-17.817 c -0.386,0 -0.619,0.041 -0.701,0.123 -0.083,0.083 -0.124,0.316 -0.124,0.701 V 1.815 c 0,3.3 0.178,6.214 0.536,8.744 0.358,2.528 1.209,4.646 2.558,6.352 1.346,1.703 3.326,2.996 5.938,3.877 2.612,0.879 6.2,1.319 10.766,1.319 4.508,0 8.083,-0.44 10.723,-1.319 2.639,-0.881 4.632,-2.174 5.98,-3.877 1.348,-1.706 2.199,-3.824 2.558,-6.352 0.357,-2.53 0.536,-5.444 0.536,-8.744 v -18.808 c 0,-0.385 -0.041,-0.618 -0.124,-0.701 -0.082,-0.082 -0.317,-0.123 -0.701,-0.123 H 32.17 c -0.385,0 -0.618,0.041 -0.701,0.123 -0.082,0.083 -0.123,0.316 -0.123,0.701 v 7.919 c 0,0.385 -0.042,0.619 -0.124,0.701 -0.083,0.083 -0.318,0.124 -0.701,0.124 H 0.824 C 0.439,-8.249 0.206,-8.29 0.123,-8.373 0.041,-8.455 0,-8.689 0,-9.074 v -7.919 c 0,-0.385 -0.042,-0.618 -0.124,-0.701 -0.083,-0.082 -0.317,-0.123 -0.701,-0.123 z" /></g><g
           transform="translate(579.8203,317.926)"
           id="g136"><path
             id="path138"
             style="fill:#000000;fill-opacity:1;fill-rule:nonzero;stroke:none"
             d="m 0,0 c 0.165,-2.53 0.247,-5.444 0.247,-8.744 v -18.808 c 0,-0.385 -0.056,-0.605 -0.165,-0.659 -0.056,-0.111 -0.275,-0.165 -0.66,-0.165 h -2.475 c -0.385,0 -0.633,0.054 -0.742,0.165 -0.056,0.054 -0.082,0.274 -0.082,0.659 v 18.808 c 0,2.199 -0.165,3.932 -0.495,5.197 -0.276,1.265 -0.716,2.199 -1.32,2.805 -0.55,0.549 -1.238,0.907 -2.062,1.072 -0.716,0.109 -1.514,0.165 -2.392,0.165 h -4.703 c -1.21,0 -2.226,-0.082 -3.051,-0.247 -0.826,-0.221 -1.54,-0.633 -2.145,-1.238 -0.606,-0.659 -1.155,-1.567 -1.65,-2.722 -0.494,-1.21 -1.045,-2.777 -1.65,-4.702 -1.484,-4.839 -2.695,-8.607 -3.63,-11.301 -0.989,-2.751 -1.896,-4.784 -2.721,-6.104 -0.991,-1.485 -1.926,-2.283 -2.805,-2.392 -0.551,-0.111 -1.897,-0.165 -4.042,-0.165 -0.77,0 -1.237,0.082 -1.402,0.247 -0.165,0.165 -0.247,0.632 -0.247,1.402 v 6.27 c 0,0.77 0.082,1.237 0.247,1.402 0.165,0.165 0.632,0.248 1.402,0.248 h 0.577 c 0.495,0 0.962,0.054 1.403,0.165 0.604,0.109 1.182,0.301 1.732,0.577 1.374,0.77 2.393,2.145 3.053,4.125 l 0.164,0.495 0.248,0.577 0.412,1.237 c 0.33,1.044 0.632,2.063 0.907,3.052 1.209,4.509 2.281,8.084 3.218,10.724 0.933,2.584 1.868,4.564 2.805,5.939 0.878,1.32 1.896,2.172 3.051,2.557 1.1,0.384 2.475,0.578 4.124,0.578 h 4.703 c 2.474,-0.056 4.399,-0.468 5.774,-1.238 1.484,-0.88 2.557,-2.145 3.217,-3.794 0.66,-1.65 0.99,-2.475 0.99,-2.475 0,0 0.054,-1.237 0.165,-3.712" /></g><g
           transform="translate(620.6514,306.4602)"
           id="g140"><path
             id="path142"
             style="fill:#000000;fill-opacity:1;fill-rule:nonzero;stroke:none"
             d="m 0,0 c 0,1.65 -0.247,2.941 -0.742,3.877 -0.495,0.935 -1.375,1.65 -2.64,2.145 -1.265,0.439 -2.97,0.714 -5.114,0.825 -2.145,0.109 -4.866,0.165 -8.166,0.165 h -11.549 c -0.385,0 -0.605,-0.029 -0.66,-0.083 -0.11,-0.111 -0.164,-0.358 -0.164,-0.742 V -6.187 c 0,-0.385 0.054,-0.605 0.164,-0.66 0.055,-0.111 0.275,-0.165 0.66,-0.165 h 11.549 c 3.3,0 6.021,0.054 8.166,0.165 2.144,0.11 3.849,0.413 5.114,0.908 1.265,0.439 2.145,1.127 2.64,2.062 C -0.247,-2.942 0,-1.65 0,0 m 3.96,-1.072 c 0,-3.52 -0.221,-6.325 -0.66,-8.414 -0.441,-2.091 -1.375,-3.685 -2.805,-4.785 -1.484,-1.1 -3.575,-1.815 -6.268,-2.144 -2.751,-0.33 -6.38,-0.495 -10.889,-0.495 h -14.849 c -0.77,0 -1.237,0.082 -1.402,0.247 -0.164,0.165 -0.247,0.632 -0.247,1.402 v 36.956 c 0,0.384 0.055,0.631 0.165,0.742 0.054,0.054 0.274,0.083 0.66,0.083 h 2.475 c 0.383,0 0.604,-0.029 0.66,-0.083 0.109,-0.111 0.165,-0.358 0.165,-0.742 v -6.27 c 0,-0.385 0.054,-0.605 0.164,-0.659 0.11,-0.111 0.357,-0.165 0.743,-0.165 h 11.466 c 4.509,0 8.138,-0.165 10.889,-0.496 2.693,-0.329 4.784,-1.018 6.268,-2.062 C 1.925,10.943 2.859,9.375 3.3,7.342 3.739,5.251 3.96,2.446 3.96,-1.072" /></g></g></g></g></svg>